# xmcd
#
# Track frame offsets:
#	150
#	16853
#	37730
#	56873
#
# Disc length: 977 seconds
#
# Revision: 4
# Processed by: cddbd v1.5.2PL0 Copyright (c) Steve Scherf et al.
# Submitted via: EZCDAudioConverter 4.0.5.1
#
DISCID=2603cf04
DTITLE=Us3 - Cantaloop CD Single
DYEAR=1900
DGENRE=Other
TTITLE0=Us3 - Cantaloop (Flip Fantasia) - Edit
TTITLE1=Us3 - Cantaloop (Flip Fantasia) (Nellee Hooper Remix - Full Length Ver
TTITLE1=sion)
TTITLE2=Us3 - Cantaloop (Flip Fantasia) (Groovy Mix)
TTITLE3=Us3 Featuring Tukka Yoot - Riddim (Manasseh Vibe Tribe Dub Mix)
EXTD=
EXTT0=
EXTT1=
EXTT2=
EXTT3=
PLAYORDER=
